<svg xmlns="http://www.w3.org/2000/svg" viewBox="0 0 120 120" role="img" aria-label="Nomos">
  <defs>
    <linearGradient id="nomosGrad" x1="20" y1="22" x2="100" y2="98" gradientUnits="userSpaceOnUse">
      <stop offset="0" stop-color="#758ce2"/>
      <stop offset="1" stop-color="#5fb89a"/>
    </linearGradient>
  </defs>
  <path d="M 68.7,19.0 L 91.2,32.0 Q 99.8,37.0 99.8,47.0 L 99.8,73.0 Q 99.8,83.0 91.2,88.0 L 68.7,101.0 Q 60.0,106.0 51.3,101.0 L 28.8,88.0 Q 20.2,83.0 20.2,73.0 L 20.2,47.0 Q 20.2,37.0 28.8,32.0 L 34.5,28.8 M 45.7,22.2 L 51.3,19.0 Q 60.0,14.0 68.7,19.0" fill="#0e1a2b" stroke="url(#nomosGrad)" stroke-width="6"
        stroke-linecap="round" stroke-linejoin="round"/>
  <path d="M45,36 C38,36 41,55 33,60 C41,65 38,84 45,84" fill="none"
        stroke="#758ce2" stroke-width="4.4" stroke-linecap="round" stroke-linejoin="round"/>
  <path d="M75,36 C82,36 79,55 87,60 C79,65 82,84 75,84" fill="none"
        stroke="#5fb89a" stroke-width="4.4" stroke-linecap="round" stroke-linejoin="round"/>
  <g fill="none" stroke="#ffffff" stroke-width="6" stroke-linecap="round" stroke-linejoin="round">
    <path d="M51,76 V44 L58,55.5"/>
    <path d="M62,64.5 L69,76 V44"/>
  </g>
</svg>
